<svg width="202" height="202" viewBox="0 0 202 202" fill="none" xmlns="http://www.w3.org/2000/svg">
<path d="M101 194.783C49.2879 194.783 7.21631 152.712 7.21631 101.002C7.21631 49.2904 49.2879 7.21631 101 7.21631C104.272 7.21631 106.929 9.87008 106.929 13.145C106.929 16.4199 104.272 19.0737 101 19.0737C55.8251 19.0737 19.0737 55.8276 19.0737 101.002C19.0737 146.177 55.8251 182.926 101 182.926C146.175 182.926 182.926 146.175 182.926 101.002C182.926 79.1182 174.404 58.542 158.931 43.0688C156.616 40.7534 156.616 37.0037 158.931 34.6883C161.244 32.3729 165.001 32.3729 167.314 34.6883C185.027 52.4012 194.783 75.9544 194.783 101.005C194.783 152.709 152.712 194.783 101 194.783Z" fill="#E7E7E7"/>
<path d="M101 194.783C49.2879 194.783 7.21631 152.712 7.21631 101.002C7.21631 49.2904 49.2879 7.21631 101 7.21631C104.272 7.21631 106.929 9.87008 106.929 13.145C106.929 16.4199 104.272 19.0737 101 19.0737C55.8251 19.0737 19.0737 55.8276 19.0737 101.002C19.0737 146.177 55.8251 182.926 101 182.926C104.272 182.926 106.929 185.58 106.929 188.855C106.929 192.13 104.272 194.783 101 194.783Z" fill="url(#paint0_linear_215_2768)"/>
<g clip-path="url(#clip0_215_2768)">
<path d="M73.6562 143.526H128.344C132.867 143.526 136.547 139.859 136.547 135.35V77.7538H117.406C112.883 77.7538 109.203 74.0862 109.203 69.5777V50.5H73.6562C69.1329 50.5 65.4531 54.1676 65.4531 58.6761V135.35C65.4531 139.859 69.1329 143.526 73.6562 143.526ZM84.5938 88.837H117.406C118.918 88.837 120.141 90.056 120.141 91.5624C120.141 93.0688 118.918 94.2878 117.406 94.2878H84.5938C83.0824 94.2878 81.8594 93.0688 81.8594 91.5624C81.8594 90.056 83.0824 88.837 84.5938 88.837ZM84.5938 99.7385H117.406C118.918 99.7385 120.141 100.958 120.141 102.464C120.141 103.97 118.918 105.189 117.406 105.189H84.5938C83.0824 105.189 81.8594 103.97 81.8594 102.464C81.8594 100.958 83.0824 99.7385 84.5938 99.7385ZM84.5938 110.64H117.406C118.918 110.64 120.141 111.859 120.141 113.365C120.141 114.872 118.918 116.091 117.406 116.091H84.5938C83.0824 116.091 81.8594 114.872 81.8594 113.365C81.8594 111.859 83.0824 110.64 84.5938 110.64ZM84.5938 121.542H106.469C107.98 121.542 109.203 122.761 109.203 124.267C109.203 125.773 107.98 126.992 106.469 126.992H84.5938C83.0824 126.992 81.8594 125.773 81.8594 124.267C81.8594 122.761 83.0824 121.542 84.5938 121.542Z" fill="url(#paint1_linear_215_2768)"/>
<path d="M117.406 72.3028H134.945L114.672 52.0967V69.5774C114.672 71.0811 115.898 72.3028 117.406 72.3028Z" fill="url(#paint2_linear_215_2768)"/>
</g>
<path d="M198.894 140.7L169.094 119.357C166.837 117.741 164.988 118.69 164.988 121.467V130.242H103.05C100.272 130.242 98 132.514 98 135.292V151.99C98 154.767 100.272 157.04 103.05 157.04H164.988V165.812C164.988 168.589 166.837 169.538 169.094 167.922L198.894 146.581C201.151 144.963 201.151 142.314 198.894 140.7Z" fill="#FA9D62"/>
<defs>
<linearGradient id="paint0_linear_215_2768" x1="85.9995" y1="-4.50012" x2="72.4995" y2="127" gradientUnits="userSpaceOnUse">
<stop stop-color="#4C9B70"/>
<stop offset="1" stop-color="#5FC98F"/>
</linearGradient>
<linearGradient id="paint1_linear_215_2768" x1="101" y1="35" x2="105.122" y2="89.6893" gradientUnits="userSpaceOnUse">
<stop stop-color="#4C9B70"/>
<stop offset="1" stop-color="#5FC98F"/>
</linearGradient>
<linearGradient id="paint2_linear_215_2768" x1="130.69" y1="50.8345" x2="129.913" y2="65.1077" gradientUnits="userSpaceOnUse">
<stop stop-color="#4C9B70"/>
<stop offset="1" stop-color="#5FC98F"/>
</linearGradient>
<clipPath id="clip0_215_2768">
<rect width="93.3333" height="93.0263" fill="white" transform="translate(54.3335 50.5)"/>
</clipPath>
</defs>
</svg>
