<svg width="72" height="72" viewBox="0 0 72 72" fill="none" xmlns="http://www.w3.org/2000/svg">
<g filter="url(#filter0_i_81_4110)">
<rect x="2" y="2" width="68" height="68" rx="34" fill="url(#paint0_linear_81_4110)"/>
<path d="M26.5272 22.1357C26.5272 19.1624 28.9376 16.752 31.9113 16.752C34.8846 16.752 37.2953 19.1624 37.2953 22.1357C37.2953 25.109 34.8846 27.5194 31.9113 27.5194C28.9376 27.5195 26.5272 25.109 26.5272 22.1357ZM34.4987 31.1873C34.5526 30.015 34.9562 28.9299 35.6055 28.0329C35.1498 27.9375 34.6789 27.8868 34.1956 27.8868H29.6276C29.1458 27.8868 28.6755 27.9371 28.2221 28.0314C28.9131 28.9897 29.3264 30.1602 29.3331 31.4272C30.173 30.9653 31.1367 30.7023 32.1603 30.7023C32.9906 30.7023 33.7811 30.8752 34.4987 31.1873ZM35.41 31.6706C36.9738 32.6512 38.0705 34.3099 38.271 36.2362C38.9082 36.534 39.6163 36.7058 40.3665 36.7058C43.1062 36.7058 45.3268 34.485 45.3268 31.7454C45.3268 29.0055 43.1062 26.7851 40.3665 26.7851C37.6519 26.7852 35.4512 28.9661 35.41 31.6706ZM32.1602 41.8273C34.8994 41.8273 37.1202 39.6058 37.1202 36.867C37.1202 34.1278 34.8994 31.9067 32.1602 31.9067C29.4208 31.9067 27.1991 34.1277 27.1991 36.867C27.1991 39.6058 29.4208 41.8273 32.1602 41.8273ZM34.2643 42.1649H30.0557C26.5538 42.1649 23.7041 45.0143 23.7041 48.5167V53.6644L23.7175 53.745L24.0718 53.8551C27.414 54.899 30.3175 55.2481 32.7076 55.2481C37.3749 55.2481 40.0813 53.9172 40.248 53.832L40.5795 53.6643H40.6146V48.5166C40.6147 45.0143 37.7667 42.1649 34.2643 42.1649ZM42.4717 37.0444H38.2947C38.2493 38.7157 37.536 40.2207 36.408 41.3026C39.5209 42.2282 41.7985 45.1147 41.7985 48.5245V50.1107C45.9219 49.9588 48.2985 48.7908 48.455 48.7121L48.7866 48.5435H48.8217V43.3948C48.8222 39.8934 45.9728 37.0444 42.4717 37.0444ZM43.5883 26.6793C45.1522 27.6602 46.2487 29.3189 46.4488 31.2452C47.0861 31.543 47.7941 31.7145 48.5443 31.7145C51.2845 31.7145 53.505 29.494 53.505 26.7548C53.505 24.0148 51.2844 21.7945 48.5443 21.7945C45.8301 21.7942 43.6296 23.9756 43.5883 26.6793ZM50.649 32.0531H46.4729C46.4275 33.7244 45.7143 35.2295 44.5863 36.3113C47.6991 37.2366 49.9767 40.1235 49.9767 43.5333V45.1194C54.0996 44.9679 56.4767 43.8001 56.6333 43.7208L56.9644 43.5527H57V38.4035C57.0005 34.9023 54.151 32.0531 50.649 32.0531ZM23.4566 36.7059C24.427 36.7059 25.3294 36.4224 26.0946 35.9399C26.3379 34.354 27.1882 32.968 28.4023 32.0245C28.4074 31.9314 28.4159 31.8395 28.4159 31.7455C28.4159 29.0056 26.1947 26.7852 23.4566 26.7852C20.7163 26.7852 18.496 29.0055 18.496 31.7455C18.496 34.4855 20.7162 36.7059 23.4566 36.7059ZM27.9113 41.3026C26.7885 40.2259 26.0777 38.7291 26.0253 37.0675C25.8709 37.056 25.7176 37.0444 25.5597 37.0444H21.3516C17.8492 37.0444 15 39.8934 15 43.3953V48.5435L15.013 48.6236L15.3678 48.7342C18.0484 49.5725 20.4416 49.9577 22.5203 50.0781V48.524C22.5207 45.1147 24.7977 42.2278 27.9113 41.3026Z" fill="white"/>
<rect x="1" y="1" width="70" height="70" rx="35" stroke="white" stroke-width="2"/>
</g>
<defs>
<filter id="filter0_i_81_4110" x="0" y="0" width="74" height="74" filterUnits="userSpaceOnUse" color-interpolation-filters="sRGB">
<feFlood flood-opacity="0" result="BackgroundImageFix"/>
<feBlend mode="normal" in="SourceGraphic" in2="BackgroundImageFix" result="shape"/>
<feColorMatrix in="SourceAlpha" type="matrix" values="0 0 0 0 0 0 0 0 0 0 0 0 0 0 0 0 0 0 127 0" result="hardAlpha"/>
<feOffset dx="2" dy="2"/>
<feGaussianBlur stdDeviation="2"/>
<feComposite in2="hardAlpha" operator="arithmetic" k2="-1" k3="1"/>
<feColorMatrix type="matrix" values="0 0 0 0 1 0 0 0 0 1 0 0 0 0 1 0 0 0 0.25 0"/>
<feBlend mode="normal" in2="shape" result="effect1_innerShadow_81_4110"/>
</filter>
<linearGradient id="paint0_linear_81_4110" x1="24" y1="2" x2="46" y2="79.5" gradientUnits="userSpaceOnUse">
<stop stop-color="#5FC98F"/>
<stop offset="1" stop-color="#479F6F"/>
</linearGradient>
</defs>
</svg>
