<svg width="72" height="72" viewBox="0 0 72 72" fill="none" xmlns="http://www.w3.org/2000/svg">
<g filter="url(#filter0_i_81_4114)">
<rect x="2" y="2" width="68" height="68" rx="34" fill="url(#paint0_linear_81_4114)"/>
<g clip-path="url(#clip0_81_4114)">
<path d="M22.3968 40.6769L31.5904 31.4832L33.7865 33.6817C34.8219 34.7224 36.2 35.2957 37.6666 35.2957C39.1333 35.2957 40.5114 34.7224 41.5473 33.6813C43.6775 31.5404 43.6775 28.057 41.5473 25.9161L38.104 22.4637L39.8145 20.9595C44.117 17.1891 50.6614 17.6205 54.4318 21.9231C58.2022 26.2256 57.7708 32.77 53.4683 36.5404L51.0108 38.8117L48.2826 36.0835C46.6953 34.4962 44.1126 34.4962 42.5253 36.0835C41.7684 36.8404 41.3471 37.8432 41.3342 38.9116C40.3092 38.9247 39.2883 39.3205 38.508 40.1008C37.7273 40.8815 37.3314 41.9032 37.3188 42.9286C36.2933 42.9413 35.2716 43.3371 34.4909 44.1179H34.4908C32.9036 45.7052 32.9036 48.288 34.4908 49.8753L36.6759 52.0603L34.8279 53.7682C33.5673 54.873 31.6496 54.7465 30.5448 53.4858C29.44 52.2251 29.5665 50.3075 30.8272 49.2028C29.5665 50.3076 27.6489 50.1812 26.5442 48.9204C25.4394 47.6598 25.5658 45.7421 26.8265 44.6374L26.8264 44.6373C25.5657 45.7421 23.6481 45.6156 22.5433 44.3549C21.5965 43.2746 21.6513 41.9106 22.3968 40.6769Z" fill="white"/>
<path d="M18.0339 20.5134C22.0792 16.4682 28.6378 16.4682 32.6831 20.5134L39.8029 27.6521C40.6531 28.5067 40.9143 29.8221 40.4659 30.9392C39.9779 32.1545 38.7213 32.9327 37.4155 32.8242C36.6954 32.7644 36.017 32.4409 35.5112 31.9262L31.5916 28.0021L21.2325 38.361L18.034 35.1625C13.9887 31.1172 13.9887 24.5586 18.0339 20.5134Z" fill="white"/>
<path d="M47.7753 43.6105L44.2655 40.1006C43.9614 39.7965 43.7939 39.3922 43.7939 38.9621C43.7939 38.532 43.9614 38.1277 44.2655 37.8236C44.5793 37.5097 44.9918 37.3528 45.404 37.3528C45.8164 37.3528 46.2286 37.5097 46.5425 37.8236L50.0523 41.3334C50.6776 41.9588 50.6796 42.9745 50.059 43.603C50.0488 43.6131 50.0382 43.6227 50.0278 43.6326C49.7266 43.922 49.3328 44.0821 48.9138 44.0821C48.4838 44.0821 48.0794 43.9145 47.7753 43.6105Z" fill="white"/>
<path d="M43.758 47.6279L40.2482 44.118C39.9441 43.8138 39.7766 43.4096 39.7766 42.9795C39.7766 42.5494 39.9441 42.1452 40.2482 41.841C40.5523 41.5369 40.9566 41.3694 41.3867 41.3694C41.8168 41.3694 42.2211 41.5369 42.5252 41.841L46.0351 45.3509C46.3391 45.655 46.5066 46.0593 46.5066 46.4894C46.5066 46.9171 46.3408 47.319 46.0399 47.6226C46.0332 47.6292 46.0264 47.6353 46.0197 47.6418C45.3907 48.2548 44.3809 48.2507 43.758 47.6279Z" fill="white"/>
<path d="M39.7409 51.645L36.231 48.1352C35.6033 47.5074 35.6032 46.4859 36.231 45.8582V45.8581C36.5352 45.554 36.9394 45.3865 37.3695 45.3865C37.7996 45.3865 38.2039 45.554 38.508 45.8581L42.0179 49.3679C42.322 49.6721 42.4895 50.0764 42.4895 50.5065C42.4895 50.9353 42.3228 51.3385 42.0203 51.6423C42.017 51.6456 42.0136 51.6486 42.0103 51.6518C41.3819 52.2723 40.3663 52.2703 39.7409 51.645Z" fill="white"/>
</g>
<rect x="1" y="1" width="70" height="70" rx="35" stroke="white" stroke-width="2"/>
</g>
<defs>
<filter id="filter0_i_81_4114" x="0" y="0" width="74" height="74" filterUnits="userSpaceOnUse" color-interpolation-filters="sRGB">
<feFlood flood-opacity="0" result="BackgroundImageFix"/>
<feBlend mode="normal" in="SourceGraphic" in2="BackgroundImageFix" result="shape"/>
<feColorMatrix in="SourceAlpha" type="matrix" values="0 0 0 0 0 0 0 0 0 0 0 0 0 0 0 0 0 0 127 0" result="hardAlpha"/>
<feOffset dx="2" dy="2"/>
<feGaussianBlur stdDeviation="2"/>
<feComposite in2="hardAlpha" operator="arithmetic" k2="-1" k3="1"/>
<feColorMatrix type="matrix" values="0 0 0 0 1 0 0 0 0 1 0 0 0 0 1 0 0 0 0.25 0"/>
<feBlend mode="normal" in2="shape" result="effect1_innerShadow_81_4114"/>
</filter>
<linearGradient id="paint0_linear_81_4114" x1="24" y1="2" x2="46" y2="79.5" gradientUnits="userSpaceOnUse">
<stop stop-color="#39BFB6"/>
<stop offset="1" stop-color="#26ADA6"/>
</linearGradient>
<clipPath id="clip0_81_4114">
<rect width="42" height="42" fill="white" transform="translate(15 15)"/>
</clipPath>
</defs>
</svg>
