<svg width="72" height="72" viewBox="0 0 72 72" fill="none" xmlns="http://www.w3.org/2000/svg">
<g filter="url(#filter0_i_133_1307)">
<rect x="2" y="2" width="68" height="68" rx="34" fill="url(#paint0_linear_133_1307)"/>
<rect x="2" y="2" width="68" height="68" rx="34" fill="url(#paint1_linear_133_1307)"/>
<path d="M39.6375 16H32.3624L31.1072 23.5313H40.8927L39.6375 16Z" fill="white"/>
<path d="M53.4294 16.8012C53.27 16.3227 52.8221 16 52.3177 16H42.0136L43.2688 23.5313H55.6727L53.4294 16.8012Z" fill="white"/>
<path d="M41.1046 25.875H30.896V33.4063H41.1046V25.875Z" fill="white"/>
<path d="M43.4479 25.875V33.4061H51.1458V41.1042H20.854V33.4061H28.5519V25.875H15.9999V32.2344C15.9999 32.8816 16.5246 33.4062 17.1718 33.4062H18.5103V42.2761V54.0469V54.8282C18.5103 55.4753 19.035 56.0001 19.6822 56.0001H52.3177C52.9649 56.0001 53.4896 55.4753 53.4896 54.8282V54.0469V42.2761V33.4062H54.8281C55.4753 33.4062 56 32.8816 56 32.2344V25.875H43.4479Z" fill="white"/>
<path d="M19.6822 16C19.1778 16 18.73 16.3227 18.5705 16.8013L16.3271 23.5313H28.731L29.9863 16H19.6822Z" fill="white"/>
<rect x="1" y="1" width="70" height="70" rx="35" stroke="white" stroke-width="2"/>
</g>
<defs>
<filter id="filter0_i_133_1307" x="0" y="0" width="74" height="74" filterUnits="userSpaceOnUse" color-interpolation-filters="sRGB">
<feFlood flood-opacity="0" result="BackgroundImageFix"/>
<feBlend mode="normal" in="SourceGraphic" in2="BackgroundImageFix" result="shape"/>
<feColorMatrix in="SourceAlpha" type="matrix" values="0 0 0 0 0 0 0 0 0 0 0 0 0 0 0 0 0 0 127 0" result="hardAlpha"/>
<feOffset dx="2" dy="2"/>
<feGaussianBlur stdDeviation="2"/>
<feComposite in2="hardAlpha" operator="arithmetic" k2="-1" k3="1"/>
<feColorMatrix type="matrix" values="0 0 0 0 1 0 0 0 0 1 0 0 0 0 1 0 0 0 0.25 0"/>
<feBlend mode="normal" in2="shape" result="effect1_innerShadow_133_1307"/>
</filter>
<linearGradient id="paint0_linear_133_1307" x1="24" y1="2" x2="46" y2="79.5" gradientUnits="userSpaceOnUse">
<stop stop-color="#A881E9"/>
<stop offset="1" stop-color="#834ED8"/>
</linearGradient>
<linearGradient id="paint1_linear_133_1307" x1="24" y1="2" x2="46" y2="79.5" gradientUnits="userSpaceOnUse">
<stop stop-color="#A881E9"/>
<stop offset="1" stop-color="#834ED8"/>
</linearGradient>
</defs>
</svg>
