<svg width="80" height="80" viewBox="0 0 80 80" fill="none" xmlns="http://www.w3.org/2000/svg">
<path d="M24.2204 32.8644C23.1149 31.6583 21.2054 31.5578 19.9993 32.6634C18.7933 33.7689 18.6928 35.6784 19.7983 36.8845L34.9742 53.3669C35.5772 53.9699 36.2807 54.3719 37.0848 54.3719C37.0848 54.3719 37.0848 54.3719 37.1853 54.3719C37.9893 54.3719 38.7933 54.0704 39.2958 53.4674L77.6878 15.1759C78.8938 13.9699 78.8938 12.0604 77.6878 10.9548C76.4817 9.8493 74.5722 9.7488 73.4667 10.9548L37.2858 47.0352L24.2204 32.8644Z" fill="#5FC98F"/>
<path d="M76.9849 36.9849C75.2764 36.9849 73.9698 38.2915 73.9698 40C73.9698 58.6935 58.6935 73.9698 40 73.9698C21.3065 73.9698 6.03015 58.6935 6.03015 40C6.03015 21.3065 21.3065 6.03015 40 6.03015C41.7085 6.03015 43.0151 4.72362 43.0151 3.01508C43.0151 1.30653 41.7085 0 40 0C17.9899 0 0 17.9899 0 40C0 62.01 17.9899 80 40 80C62.01 80 80 62.01 80 40C80 38.2915 78.6935 36.9849 76.9849 36.9849Z" fill="#5FC98F"/>
</svg>
